<mxfile host="Electron" agent="Mozilla/5.0 (Windows NT 10.0; Win64; x64) AppleWebKit/537.36 (KHTML, like Gecko) draw.io/26.0.15 Chrome/132.0.6834.196 Electron/34.2.0 Safari/537.36" version="26.0.15">
  <diagram id="riieCaiu_gEsyVia3rH7" name="ページ1">
    <mxGraphModel dx="1912" dy="1160" grid="1" gridSize="10" guides="1" tooltips="1" connect="1" arrows="1" fold="1" page="1" pageScale="1" pageWidth="900" pageHeight="500" background="#ffffff" math="1" shadow="0">
      <root>
        <mxCell id="0" />
        <mxCell id="1" parent="0" />
        <mxCell id="oIaxvJGXD3p_VYag6Lge-51" value="" style="endArrow=none;html=1;rounded=1;entryX=-0.367;entryY=0.667;entryDx=0;entryDy=0;entryPerimeter=0;curved=0;" edge="1" parent="1" target="oIaxvJGXD3p_VYag6Lge-50">
          <mxGeometry width="50" height="50" relative="1" as="geometry">
            <mxPoint x="813" y="134" as="sourcePoint" />
            <mxPoint x="673" y="174" as="targetPoint" />
            <Array as="points">
              <mxPoint x="713" y="134" />
              <mxPoint x="713" y="169" />
            </Array>
          </mxGeometry>
        </mxCell>
        <mxCell id="oIaxvJGXD3p_VYag6Lge-1" value="現象" style="text;html=1;align=center;verticalAlign=middle;whiteSpace=wrap;rounded=0;fontSize=24;" vertex="1" parent="1">
          <mxGeometry x="40" y="120" width="200" height="40" as="geometry" />
        </mxCell>
        <mxCell id="oIaxvJGXD3p_VYag6Lge-2" value="`F=ma`" style="text;html=1;align=center;verticalAlign=middle;whiteSpace=wrap;rounded=0;fontSize=24;" vertex="1" parent="1">
          <mxGeometry x="280" y="200" width="200" height="40" as="geometry" />
        </mxCell>
        <mxCell id="oIaxvJGXD3p_VYag6Lge-4" value="外からの操作" style="text;html=1;align=center;verticalAlign=middle;whiteSpace=wrap;rounded=0;fontSize=24;" vertex="1" parent="1">
          <mxGeometry x="40" y="280" width="200" height="40" as="geometry" />
        </mxCell>
        <mxCell id="oIaxvJGXD3p_VYag6Lge-5" value="対象の応答" style="text;html=1;align=center;verticalAlign=middle;whiteSpace=wrap;rounded=0;fontSize=24;" vertex="1" parent="1">
          <mxGeometry x="40" y="360" width="200" height="40" as="geometry" />
        </mxCell>
        <mxCell id="oIaxvJGXD3p_VYag6Lge-6" value="応答のしにくさ" style="text;html=1;align=center;verticalAlign=middle;whiteSpace=wrap;rounded=0;fontSize=24;" vertex="1" parent="1">
          <mxGeometry x="40" y="440" width="200" height="40" as="geometry" />
        </mxCell>
        <mxCell id="oIaxvJGXD3p_VYag6Lge-7" value="方程式" style="text;html=1;align=center;verticalAlign=middle;whiteSpace=wrap;rounded=0;fontSize=24;" vertex="1" parent="1">
          <mxGeometry x="40" y="200" width="200" height="40" as="geometry" />
        </mxCell>
        <mxCell id="oIaxvJGXD3p_VYag6Lge-8" value="`F=kx`" style="text;html=1;align=center;verticalAlign=middle;whiteSpace=wrap;rounded=0;fontSize=24;" vertex="1" parent="1">
          <mxGeometry x="480" y="200" width="200" height="40" as="geometry" />
        </mxCell>
        <mxCell id="oIaxvJGXD3p_VYag6Lge-9" value="`V=RI`" style="text;html=1;align=center;verticalAlign=middle;whiteSpace=wrap;rounded=0;fontSize=24;" vertex="1" parent="1">
          <mxGeometry x="680" y="200" width="200" height="40" as="geometry" />
        </mxCell>
        <mxCell id="oIaxvJGXD3p_VYag6Lge-10" value="運動の第二法則" style="text;html=1;align=center;verticalAlign=middle;whiteSpace=wrap;rounded=0;fontSize=24;" vertex="1" parent="1">
          <mxGeometry x="280" y="40" width="200" height="40" as="geometry" />
        </mxCell>
        <mxCell id="oIaxvJGXD3p_VYag6Lge-11" value="フックの法則" style="text;html=1;align=center;verticalAlign=middle;whiteSpace=wrap;rounded=0;fontSize=24;" vertex="1" parent="1">
          <mxGeometry x="480" y="40" width="200" height="40" as="geometry" />
        </mxCell>
        <mxCell id="oIaxvJGXD3p_VYag6Lge-12" value="オームの法則" style="text;html=1;align=center;verticalAlign=middle;whiteSpace=wrap;rounded=0;fontSize=24;" vertex="1" parent="1">
          <mxGeometry x="680" y="40" width="200" height="40" as="geometry" />
        </mxCell>
        <mxCell id="oIaxvJGXD3p_VYag6Lge-13" value="力`F`" style="text;html=1;align=center;verticalAlign=middle;whiteSpace=wrap;rounded=0;fontSize=24;" vertex="1" parent="1">
          <mxGeometry x="280" y="280" width="200" height="40" as="geometry" />
        </mxCell>
        <mxCell id="oIaxvJGXD3p_VYag6Lge-14" value="力`F`" style="text;html=1;align=center;verticalAlign=middle;whiteSpace=wrap;rounded=0;fontSize=24;" vertex="1" parent="1">
          <mxGeometry x="480" y="280" width="200" height="40" as="geometry" />
        </mxCell>
        <mxCell id="oIaxvJGXD3p_VYag6Lge-15" value="電圧`V`" style="text;html=1;align=center;verticalAlign=middle;whiteSpace=wrap;rounded=0;fontSize=24;" vertex="1" parent="1">
          <mxGeometry x="680" y="280" width="200" height="40" as="geometry" />
        </mxCell>
        <mxCell id="oIaxvJGXD3p_VYag6Lge-16" value="加速度`a`" style="text;html=1;align=center;verticalAlign=middle;whiteSpace=wrap;rounded=0;fontSize=24;" vertex="1" parent="1">
          <mxGeometry x="280" y="360" width="200" height="40" as="geometry" />
        </mxCell>
        <mxCell id="oIaxvJGXD3p_VYag6Lge-17" value="バネの伸び`x`" style="text;html=1;align=center;verticalAlign=middle;whiteSpace=wrap;rounded=0;fontSize=24;" vertex="1" parent="1">
          <mxGeometry x="480" y="360" width="200" height="40" as="geometry" />
        </mxCell>
        <mxCell id="oIaxvJGXD3p_VYag6Lge-18" value="電流`I`" style="text;html=1;align=center;verticalAlign=middle;whiteSpace=wrap;rounded=0;fontSize=24;" vertex="1" parent="1">
          <mxGeometry x="680" y="360" width="200" height="40" as="geometry" />
        </mxCell>
        <mxCell id="oIaxvJGXD3p_VYag6Lge-19" value="質量`m`" style="text;html=1;align=center;verticalAlign=middle;whiteSpace=wrap;rounded=0;fontSize=24;" vertex="1" parent="1">
          <mxGeometry x="280" y="440" width="200" height="40" as="geometry" />
        </mxCell>
        <mxCell id="oIaxvJGXD3p_VYag6Lge-20" value="ばね定数`k`" style="text;html=1;align=center;verticalAlign=middle;whiteSpace=wrap;rounded=0;fontSize=24;" vertex="1" parent="1">
          <mxGeometry x="480" y="440" width="200" height="40" as="geometry" />
        </mxCell>
        <mxCell id="oIaxvJGXD3p_VYag6Lge-21" value="抵抗`R`" style="text;html=1;align=center;verticalAlign=middle;whiteSpace=wrap;rounded=0;fontSize=24;" vertex="1" parent="1">
          <mxGeometry x="680" y="440" width="200" height="40" as="geometry" />
        </mxCell>
        <mxCell id="oIaxvJGXD3p_VYag6Lge-22" value="" style="shape=image;aspect=fixed;image=data:image/svg+xml,PD94bWwgdmVyc2lvbj0iMS4wIiBlbmNvZGluZz0iVVRGLTgiPz4KPHN2ZyBpZD0iX+ODrOOCpOODpOODvF8xIiBkYXRhLW5hbWU9IuODrOOCpOODpOODvF8xIiB4bWxucz0iaHR0cDovL3d3dy53My5vcmcvMjAwMC9zdmciIHZlcnNpb249IjEuMSIgdmlld0JveD0iMCAwIDIwNyA3MiI+CiAgPCEtLSBHZW5lcmF0b3I6IEFkb2JlIElsbHVzdHJhdG9yIDI5LjEuMCwgU1ZHIEV4cG9ydCBQbHVnLUluIC4gU1ZHIFZlcnNpb246IDIuMS4wIEJ1aWxkIDE0MikgIC0tPgogIDxkZWZzPgogICAgPHN0eWxlPgogICAgICAuc3QwIHsKICAgICAgICBmaWxsOiBub25lOwogICAgICAgIHN0cm9rZTogIzIzMTgxNTsKICAgICAgICBzdHJva2UtbWl0ZXJsaW1pdDogMTA7CiAgICAgIH0KICAgIDwvc3R5bGU+CiAgPC9kZWZzPgogIDxwYXRoIGNsYXNzPSJzdDAiIGQ9Ik0yNywzNkMyNywxNi4xMiwzNy4wNywwLDQ5LjUsMHMyMi41LDE2LjEyLDIyLjUsMzYiLz4KICA8cGF0aCBjbGFzcz0ic3QwIiBkPSJNNDUsMzZDNDUsMTYuMTIsNTUuMDcsMCw2Ny41LDBzMjIuNSwxNi4xMiwyMi41LDM2Ii8+CiAgPHBhdGggY2xhc3M9InN0MCIgZD0iTTcyLDM2YzAsMTkuODgtNi4wNCwzNi0xMy41LDM2cy0xMy41LTE2LjEyLTEzLjUtMzYiLz4KICA8cGF0aCBjbGFzcz0ic3QwIiBkPSJNOTAsMzZjMCwxOS44OC02LjA0LDM2LTEzLjUsMzZzLTEzLjUtMTYuMTItMTMuNS0zNiIvPgogIDxwYXRoIGNsYXNzPSJzdDAiIGQ9Ik02MywzNkM2MywxNi4xMiw3My4wNywwLDg1LjUsMHMyMi41LDE2LjEyLDIyLjUsMzYiLz4KICA8cGF0aCBjbGFzcz0ic3QwIiBkPSJNODEsMzZjMC0xOS44OCwxMC4wNy0zNiwyMi41LTM2czIyLjUsMTYuMTIsMjIuNSwzNiIvPgogIDxwYXRoIGNsYXNzPSJzdDAiIGQ9Ik0xMDgsMzZjMCwxOS44OC02LjA0LDM2LTEzLjUsMzZzLTEzLjUtMTYuMTItMTMuNS0zNiIvPgogIDxwYXRoIGNsYXNzPSJzdDAiIGQ9Ik0xMjYsMzZjMCwxOS44OC02LjA0LDM2LTEzLjUsMzZzLTEzLjUtMTYuMTItMTMuNS0zNiIvPgogIDxwYXRoIGNsYXNzPSJzdDAiIGQ9Ik0xNDQsMzZjMCwxOS44OC02LjA0LDM2LTEzLjUsMzZzLTEzLjUtMTYuMTItMTMuNS0zNiIvPgogIDxwYXRoIGNsYXNzPSJzdDAiIGQ9Ik0xNjIsMzZjMCwxOS44OC02LjA0LDM2LTEzLjUsMzZzLTEzLjUtMTYuMTItMTMuNS0zNiIvPgogIDxwYXRoIGNsYXNzPSJzdDAiIGQ9Ik05OSwzNmMwLTE5Ljg4LDEwLjA3LTM2LDIyLjUtMzZzMjIuNSwxNi4xMiwyMi41LDM2Ii8+CiAgPHBhdGggY2xhc3M9InN0MCIgZD0iTTExNywzNmMwLTE5Ljg4LDEwLjA3LTM2LDIyLjUtMzZzMjIuNSwxNi4xMiwyMi41LDM2Ii8+CiAgPHBhdGggY2xhc3M9InN0MCIgZD0iTTEzNSwzNmMwLTE5Ljg4LDEwLjA3LTM2LDIyLjUtMzZzMjIuNSwxNi4xMiwyMi41LDM2Ii8+CiAgPGxpbmUgY2xhc3M9InN0MCIgeDE9IjE4MCIgeTE9IjM2IiB4Mj0iMjA3IiB5Mj0iMzYiLz4KICA8bGluZSBjbGFzcz0ic3QwIiB5MT0iMzYiIHgyPSIyNyIgeTI9IjM2Ii8+Cjwvc3ZnPg==;" vertex="1" parent="1">
          <mxGeometry x="520" y="124.5" width="98.08" height="34" as="geometry" />
        </mxCell>
        <mxCell id="oIaxvJGXD3p_VYag6Lge-23" value="" style="rounded=0;whiteSpace=wrap;html=1;fillColor=#FFB366;" vertex="1" parent="1">
          <mxGeometry x="509.04" y="114.5" width="10.96" height="50" as="geometry" />
        </mxCell>
        <mxCell id="oIaxvJGXD3p_VYag6Lge-25" value="" style="endArrow=none;html=1;rounded=0;exitX=0;exitY=1;exitDx=0;exitDy=0;" edge="1" parent="1" source="oIaxvJGXD3p_VYag6Lge-23">
          <mxGeometry width="50" height="50" relative="1" as="geometry">
            <mxPoint x="630" y="204.5" as="sourcePoint" />
            <mxPoint x="670" y="164.5" as="targetPoint" />
          </mxGeometry>
        </mxCell>
        <mxCell id="oIaxvJGXD3p_VYag6Lge-27" value="" style="rounded=1;whiteSpace=wrap;html=1;fillColor=#CCCCCC;" vertex="1" parent="1">
          <mxGeometry x="617" y="121.5" width="40" height="40" as="geometry" />
        </mxCell>
        <mxCell id="oIaxvJGXD3p_VYag6Lge-29" value="" style="rounded=1;whiteSpace=wrap;html=1;arcSize=33;fillColor=#CCCCCC;" vertex="1" parent="1">
          <mxGeometry x="789" y="164" width="10" height="10" as="geometry" />
        </mxCell>
        <mxCell id="oIaxvJGXD3p_VYag6Lge-28" value="" style="rounded=1;whiteSpace=wrap;html=1;fillColor=#FF0000;" vertex="1" parent="1">
          <mxGeometry x="733" y="154" width="60" height="30" as="geometry" />
        </mxCell>
        <mxCell id="oIaxvJGXD3p_VYag6Lge-48" value="" style="group" vertex="1" connectable="0" parent="1">
          <mxGeometry x="803" y="104" width="30" height="40" as="geometry" />
        </mxCell>
        <mxCell id="oIaxvJGXD3p_VYag6Lge-42" value="" style="ellipse;whiteSpace=wrap;html=1;aspect=fixed;strokeColor=default;fillColor=#FFFF99;strokeWidth=0.5;" vertex="1" parent="oIaxvJGXD3p_VYag6Lge-48">
          <mxGeometry width="30" height="30" as="geometry" />
        </mxCell>
        <mxCell id="oIaxvJGXD3p_VYag6Lge-43" value="" style="endArrow=none;html=1;rounded=0;curved=1;strokeWidth=0.5;" edge="1" parent="oIaxvJGXD3p_VYag6Lge-48">
          <mxGeometry width="50" height="50" relative="1" as="geometry">
            <mxPoint x="11.666666666666629" y="30" as="sourcePoint" />
            <mxPoint x="18.33333333333337" y="30" as="targetPoint" />
            <Array as="points">
              <mxPoint x="11.666666666666629" y="23.33333333333337" />
              <mxPoint x="5" y="16.66666666666663" />
              <mxPoint x="11.666666666666629" y="10" />
              <mxPoint x="18.33333333333337" y="16.66666666666663" />
              <mxPoint x="15" y="20" />
              <mxPoint x="11.666666666666629" y="16.66666666666663" />
              <mxPoint x="18.33333333333337" y="10" />
              <mxPoint x="25" y="16.66666666666663" />
              <mxPoint x="18.33333333333337" y="23.33333333333337" />
            </Array>
          </mxGeometry>
        </mxCell>
        <mxCell id="oIaxvJGXD3p_VYag6Lge-45" value="" style="rounded=1;whiteSpace=wrap;html=1;arcSize=30;fillColor=#CCCCCC;strokeWidth=0.5;" vertex="1" parent="oIaxvJGXD3p_VYag6Lge-48">
          <mxGeometry x="8.333333333333371" y="31.66666666666663" width="13.333333333333332" height="3.333333333333333" as="geometry" />
        </mxCell>
        <mxCell id="oIaxvJGXD3p_VYag6Lge-46" value="" style="ellipse;whiteSpace=wrap;html=1;fillColor=#CCCCCC;strokeWidth=0.5;" vertex="1" parent="oIaxvJGXD3p_VYag6Lge-48">
          <mxGeometry x="11.666666666666629" y="36.66666666666663" width="6.666666666666666" height="3.333333333333333" as="geometry" />
        </mxCell>
        <mxCell id="oIaxvJGXD3p_VYag6Lge-47" value="" style="rounded=1;whiteSpace=wrap;html=1;arcSize=30;fillColor=#CCCCCC;strokeWidth=0.5;" vertex="1" parent="oIaxvJGXD3p_VYag6Lge-48">
          <mxGeometry x="8.333333333333371" y="35" width="13.333333333333332" height="3.333333333333333" as="geometry" />
        </mxCell>
        <mxCell id="oIaxvJGXD3p_VYag6Lge-44" value="" style="rounded=1;whiteSpace=wrap;html=1;arcSize=30;fillColor=#CCCCCC;strokeWidth=0.5;" vertex="1" parent="oIaxvJGXD3p_VYag6Lge-48">
          <mxGeometry x="8.333333333333371" y="28.33333333333337" width="13.333333333333332" height="3.333333333333333" as="geometry" />
        </mxCell>
        <mxCell id="oIaxvJGXD3p_VYag6Lge-49" value="+" style="text;html=1;align=center;verticalAlign=middle;whiteSpace=wrap;rounded=0;fontColor=#FFFFFF;" vertex="1" parent="1">
          <mxGeometry x="779" y="164" width="10" height="10" as="geometry" />
        </mxCell>
        <mxCell id="oIaxvJGXD3p_VYag6Lge-50" value="-" style="text;html=1;align=center;verticalAlign=middle;whiteSpace=wrap;rounded=0;fontColor=#FFFFFF;fontSize=18;" vertex="1" parent="1">
          <mxGeometry x="737" y="162" width="10" height="10" as="geometry" />
        </mxCell>
        <mxCell id="oIaxvJGXD3p_VYag6Lge-52" value="" style="endArrow=none;html=1;rounded=1;exitX=1;exitY=0.5;exitDx=0;exitDy=0;entryX=0.5;entryY=1.451;entryDx=0;entryDy=0;entryPerimeter=0;curved=0;" edge="1" parent="1" source="oIaxvJGXD3p_VYag6Lge-29" target="oIaxvJGXD3p_VYag6Lge-47">
          <mxGeometry width="50" height="50" relative="1" as="geometry">
            <mxPoint x="763" y="184" as="sourcePoint" />
            <mxPoint x="813" y="134" as="targetPoint" />
            <Array as="points">
              <mxPoint x="818" y="169" />
              <mxPoint x="818" y="157" />
            </Array>
          </mxGeometry>
        </mxCell>
        <mxCell id="oIaxvJGXD3p_VYag6Lge-53" value="" style="rounded=1;whiteSpace=wrap;html=1;fillColor=#FFFF99;strokeColor=#FFCC99;arcSize=50;" vertex="1" parent="1">
          <mxGeometry x="837" y="117" width="14" height="4" as="geometry" />
        </mxCell>
        <mxCell id="oIaxvJGXD3p_VYag6Lge-54" value="" style="rounded=1;whiteSpace=wrap;html=1;fillColor=#FFFF99;strokeColor=#FFCC99;arcSize=50;rotation=45;" vertex="1" parent="1">
          <mxGeometry x="789" y="97" width="14" height="4" as="geometry" />
        </mxCell>
        <mxCell id="oIaxvJGXD3p_VYag6Lge-55" value="" style="rounded=1;whiteSpace=wrap;html=1;fillColor=#FFFF99;strokeColor=#FFCC99;arcSize=50;rotation=-90;" vertex="1" parent="1">
          <mxGeometry x="811" y="90" width="14" height="4" as="geometry" />
        </mxCell>
        <mxCell id="oIaxvJGXD3p_VYag6Lge-56" value="" style="rounded=1;whiteSpace=wrap;html=1;fillColor=#FFFF99;strokeColor=#FFCC99;arcSize=50;" vertex="1" parent="1">
          <mxGeometry x="785" y="117" width="14" height="4" as="geometry" />
        </mxCell>
        <mxCell id="oIaxvJGXD3p_VYag6Lge-57" value="" style="rounded=1;whiteSpace=wrap;html=1;fillColor=#FFFF99;strokeColor=#FFCC99;arcSize=50;rotation=-45;" vertex="1" parent="1">
          <mxGeometry x="833" y="97" width="14" height="4" as="geometry" />
        </mxCell>
        <mxCell id="oIaxvJGXD3p_VYag6Lge-59" value="" style="rounded=0;whiteSpace=wrap;html=1;fillColor=#CCCCCC;" vertex="1" parent="1">
          <mxGeometry x="336" y="121.25" width="52" height="37.5" as="geometry" />
        </mxCell>
        <mxCell id="oIaxvJGXD3p_VYag6Lge-61" value="" style="shape=flexArrow;endArrow=classic;html=1;rounded=0;fillColor=#FF0000;" edge="1" parent="1">
          <mxGeometry width="50" height="50" relative="1" as="geometry">
            <mxPoint x="286" y="141.33" as="sourcePoint" />
            <mxPoint x="336" y="141.33" as="targetPoint" />
          </mxGeometry>
        </mxCell>
        <mxCell id="oIaxvJGXD3p_VYag6Lge-63" value="" style="shape=flexArrow;endArrow=classic;html=1;rounded=0;fillColor=#0000FF;" edge="1" parent="1">
          <mxGeometry width="50" height="50" relative="1" as="geometry">
            <mxPoint x="388" y="141.33" as="sourcePoint" />
            <mxPoint x="430" y="141" as="targetPoint" />
          </mxGeometry>
        </mxCell>
        <mxCell id="oIaxvJGXD3p_VYag6Lge-64" value="`F`" style="text;html=1;align=center;verticalAlign=middle;whiteSpace=wrap;rounded=0;fontSize=24;" vertex="1" parent="1">
          <mxGeometry x="280" y="99" width="40" height="40" as="geometry" />
        </mxCell>
        <mxCell id="oIaxvJGXD3p_VYag6Lge-65" value="`a`" style="text;html=1;align=center;verticalAlign=middle;whiteSpace=wrap;rounded=0;fontSize=24;" vertex="1" parent="1">
          <mxGeometry x="388" y="94" width="40" height="40" as="geometry" />
        </mxCell>
        <mxCell id="oIaxvJGXD3p_VYag6Lge-66" value="`m`" style="text;html=1;align=center;verticalAlign=middle;whiteSpace=wrap;rounded=0;fontSize=24;" vertex="1" parent="1">
          <mxGeometry x="340" y="117" width="40" height="40" as="geometry" />
        </mxCell>
      </root>
    </mxGraphModel>
  </diagram>
</mxfile>
